<svg id="Layer_1" enable-background="new 0 0 510 510" height="512" viewBox="0 0 510 510" width="512" xmlns="http://www.w3.org/2000/svg"><g id="XMLID_4235_"><path id="XMLID_4379_" d="m135 257-15 73 15 55c11.1 4.6 19.9 8.3 30 12.5l15-67.5-15-90.1c-10 5.7-18.9 10.7-30 17.1z" fill="#ffc649"/><path id="XMLID_4384_" d="m345 239.9-15 75.1 15 82.5c9.8-4.1 18.6-7.8 30-12.5l15-70-15-58c-9.8-5.6-18.5-10.6-30-17.1z" fill="#ffc649"/><path id="XMLID_4264_" d="m75 291.3v68.7s27 11.2 60 25v-128c-23.8 13.6-49.1 28-60 34.3z" fill="#ffdc75"/><path id="XMLID_4265_" d="m255 270-30-30-37.8-12.8s-9.1 5.2-22.2 12.7v157.6c45 18.7 89.9 37.5 90 37.5 0-2.5 10.3-95.7 10.3-95.7z" fill="#4d4d8c"/><path id="XMLID_4241_" d="m322.8 227.2-37.8 12.8-30 30v165c.1 0 45-18.8 90-37.5v-157.6c-13.1-7.5-22.2-12.7-22.2-12.7z" fill="#283366"/><path id="XMLID_4253_" d="m435 291.3c-4.4-2.5-32.8-18.8-60-34.3v128c33-13.8 60-25 60-25 0-15.3 0-53.4 0-68.7z" fill="#ffa951"/><path id="XMLID_4407_" d="m180 75v60c9.4 0 37.5 15 37.5 15s31.2-15 37.5-15c5.2-13.1 9.8-24.4 15-37.5-5.2-7.9-9.8-14.6-15-22.5-13.1-5.2-24.4-9.8-37.5-15-13.1 5.2-24.4 9.8-37.5 15z" fill="#4d4d8c"/><path id="XMLID_4404_" d="m330 75-37.5-15-37.5 15v60l37.5 15 37.5-15c0-20.8 0-39.2 0-60z" fill="#283366"/><path id="XMLID_4403_" d="m120 45v30h135l15-15-15-15c-16.3 0-118.6 0-135 0z" fill="#283366"/><path id="XMLID_4400_" d="m375 150h30c0-28.3 0-88.5 0-105-10.1 0-139.9 0-150 0v30h120z" fill="#0a1833"/><path id="XMLID_4397_" d="m255 435-120 15-105-15c0-20.2 0-63.2 0-75 5.1 0 154.9 0 150 0 20.7 0 39.5 8.4 53 22 23.7 23.7 21.8 52.2 22 53z" fill="#fff5f5"/><path id="XMLID_4394_" d="m480 360c-10.1 0-139.9 0-150 0-41.4 0-75 33.6-75 75l112.5 15 112.5-15c0-20.2 0-63.2 0-75z" fill="#e4e4ff"/><path id="XMLID_4391_" d="m0 435v15 15h255l15-15-15-15c-7.2 0-247.8 0-255 0z" fill="#73ca7a"/><path id="XMLID_1_" d="m255 435v30h255v-15-15c-7.2 0-247.8 0-255 0z" fill="#5fa794"/><path id="XMLID_4385_" d="m180 135v60c0 41.5 33.7 75 75 75l15-67.5-15-67.5c-20.2 0-63.2 0-75 0z" fill="#f1ccbd"/><path id="XMLID_4378_" d="m330 195c0-7.3 0-52.7 0-60-20.2 0-63.2 0-75 0v135c1.2-.2 20.1 1.1 40.1-11.6 21.2-13.5 34.9-37 34.9-63.4z" fill="#eebda9"/></g></svg>