<svg id="Capa_1" enable-background="new 0 0 512 512" height="512" viewBox="0 0 512 512" width="512" xmlns="http://www.w3.org/2000/svg"><g><g><path d="m121.318 504.5h-77.316c-13.897 0-25.162-11.266-25.162-25.162v-331.05l10-39.258-10-39.258v-37.11c0-13.896 11.265-25.162 25.162-25.162h77.315c13.897 0 25.162 11.266 25.162 25.162v446.675c.001 13.897-11.265 25.163-25.161 25.163z" fill="#b0e26c"/><path d="m447.998 504.5h-67.315c-13.897 0-25.162-11.266-25.162-25.162v-18.345l10-22.227-10-22.227v-80.47l10-80.069-10-80.069v-80.47l10-25.69-10-18.764v-18.345c0-13.897 11.266-25.162 25.162-25.162h67.315c13.897 0 25.162 11.266 25.162 25.162v446.675c0 13.897-11.265 25.163-25.162 25.163z" fill="#9dc6fb"/><path d="m467.998 7.5h-30c13.897 0 25.162 11.266 25.162 25.162v446.675c0 13.897-11.266 25.162-25.162 25.162h30c13.897 0 25.162-11.266 25.162-25.162v-18.345l-10-22.227 10-22.227v-80.47l-10-80.069 10-80.069v-80.47l-10-22.227 10-22.227v-18.344c0-13.896-11.265-25.162-25.162-25.162z" fill="#80b4fb"/><path d="m131.318 7.5h-30c13.896 0 25.162 11.266 25.162 25.162v446.675c0 13.897-11.266 25.162-25.162 25.162h30c13.896 0 25.162-11.266 25.162-25.162v-331.05l-10-44.662 10-33.854v-37.109c0-13.896-11.266-25.162-25.162-25.162z" fill="#7bb44a"/><path d="m18.84 69.771h122.64v78.517h-122.64z" fill="#f9d065"/><path d="m126.48 69.771h30v78.517h-30z" fill="#f5b84c"/><path d="m355.52 175.931h137.64v160.138h-137.64z" fill="#f9d065"/><path d="m463.16 175.931h30v160.138h-30z" fill="#f5b84c"/><path d="m355.52 51.007h137.64v44.454h-137.64z" fill="#f2fdff"/><path d="m463.16 51.007h30v44.454h-30z" fill="#d3ecf5"/><path d="m355.52 416.539h137.64v44.454h-137.64z" fill="#f2fdff"/><path d="m287.658 504.5h-75.315c-13.897 0-25.162-11.266-25.162-25.162v-446.676c0-13.897 11.266-25.162 25.162-25.162h75.315c13.897 0 25.162 11.266 25.162 25.162v446.675c0 13.897-11.265 25.163-25.162 25.163z" fill="#ed6479"/><path d="m299.658 7.5h-30c13.897 0 25.162 11.266 25.162 25.162v446.675c0 13.897-11.266 25.162-25.162 25.162h30c13.897 0 25.162-11.266 25.162-25.162v-446.675c0-13.896-11.266-25.162-25.162-25.162z" fill="#d65461"/><path d="m256 391.44c-18.998 0-34.399-15.401-34.399-34.399v-202.082c0-18.998 15.401-34.399 34.399-34.399 18.998 0 34.399 15.401 34.399 34.399v202.081c0 18.999-15.401 34.4-34.399 34.4z" fill="#f9d065"/><path d="m463.16 416.539h30v44.454h-30z" fill="#d3ecf5"/></g><g><path d="m299.657 0h-87.314c-18.011 0-32.663 14.652-32.663 32.662v446.676c0 18.01 14.652 32.662 32.663 32.662h87.314c18.011 0 32.663-14.652 32.663-32.662v-446.676c0-18.01-14.652-32.662-32.663-32.662zm17.663 479.338c0 9.739-7.924 17.662-17.663 17.662h-87.314c-9.739 0-17.663-7.923-17.663-17.662v-446.676c0-9.739 7.924-17.662 17.663-17.662h87.314c9.739 0 17.663 7.923 17.663 17.662z"/><path d="m70.543 424.445v-206.841c0-4.142-3.357-7.5-7.5-7.5s-7.5 3.358-7.5 7.5v206.841c0 4.142 3.357 7.5 7.5 7.5s7.5-3.358 7.5-7.5z"/><path d="m119.776 424.445v-206.841c0-4.142-3.357-7.5-7.5-7.5s-7.5 3.358-7.5 7.5v206.841c0 4.142 3.357 7.5 7.5 7.5s7.5-3.358 7.5-7.5z"/><path d="m290.399 75.578h-68.799c-4.143 0-7.5 3.358-7.5 7.5s3.357 7.5 7.5 7.5h68.799c4.143 0 7.5-3.358 7.5-7.5s-3.357-7.5-7.5-7.5z"/><path d="m290.399 43.507h-68.799c-4.143 0-7.5 3.358-7.5 7.5s3.357 7.5 7.5 7.5h68.799c4.143 0 7.5-3.358 7.5-7.5s-3.357-7.5-7.5-7.5z"/><path d="m290.399 453.493h-68.799c-4.143 0-7.5 3.358-7.5 7.5s3.357 7.5 7.5 7.5h68.799c4.143 0 7.5-3.358 7.5-7.5s-3.357-7.5-7.5-7.5z"/><path d="m290.399 421.422h-68.799c-4.143 0-7.5 3.358-7.5 7.5s3.357 7.5 7.5 7.5h68.799c4.143 0 7.5-3.358 7.5-7.5s-3.357-7.5-7.5-7.5z"/><path d="m467.998 0h-87.315c-18.01 0-32.662 14.652-32.662 32.662v446.676c0 18.01 14.652 32.662 32.662 32.662h87.315c18.01 0 32.662-14.652 32.662-32.662v-324.57c0-4.142-3.357-7.5-7.5-7.5s-7.5 3.358-7.5 7.5v13.663h-122.64v-65.47h122.64v19.121c0 4.142 3.357 7.5 7.5 7.5s7.5-3.358 7.5-7.5v-89.42c0-18.01-14.652-32.662-32.662-32.662zm-87.315 15h87.315c9.739 0 17.662 7.923 17.662 17.662v10.845h-122.64v-10.845c.001-9.739 7.923-17.662 17.663-17.662zm-17.662 409.039h122.64v29.454h-122.64zm122.639-15h-122.64v-65.47h122.64zm-17.662 87.961h-87.315c-9.739 0-17.662-7.923-17.662-17.662v-10.845h122.64v10.845c-.001 9.739-7.924 17.662-17.663 17.662zm17.662-313.569v145.138h-122.64v-145.138zm-122.639-95.47v-29.454h122.64v29.454z"/><path d="m256 113.061c-23.104 0-41.899 18.796-41.899 41.899v202.081c0 23.103 18.796 41.899 41.899 41.899s41.899-18.796 41.899-41.899v-34.018c0-4.142-3.357-7.5-7.5-7.5s-7.5 3.358-7.5 7.5v34.018c0 14.832-12.067 26.899-26.899 26.899s-26.899-12.067-26.899-26.899v-202.081c0-14.832 12.067-26.899 26.899-26.899s26.899 12.067 26.899 26.899v135.376c0 4.142 3.357 7.5 7.5 7.5s7.5-3.358 7.5-7.5v-135.376c0-23.104-18.796-41.899-41.899-41.899z"/><path d="m131.317 0h-87.315c-18.01 0-32.662 14.652-32.662 32.662v168.598c0 4.142 3.358 7.5 7.5 7.5 4.143 0 7.5-3.358 7.5-7.5v-45.473h122.64v323.55c0 9.739-7.923 17.662-17.662 17.662h-87.316c-9.739 0-17.662-7.923-17.662-17.662v-245.391c0-4.142-3.357-7.5-7.5-7.5-4.142 0-7.5 3.358-7.5 7.5v245.392c0 18.01 14.652 32.662 32.662 32.662h87.315c18.01 0 32.662-14.652 32.662-32.662v-446.676c.001-18.01-14.652-32.662-32.662-32.662zm-87.315 15h87.315c9.739 0 17.662 7.923 17.662 17.662v29.609h-122.639v-29.609c0-9.739 7.923-17.662 17.662-17.662zm-17.662 125.788v-63.517h122.64v63.517z"/></g></g></svg>