<svg height="512" viewBox="0 0 64 64" width="512" xmlns="http://www.w3.org/2000/svg"><g id="Bookshelves-book-books-education-book_store" data-name="Bookshelves-book-books-education-book store"><path d="m3 55h58v4h-58z" fill="#f8d251"/><path d="m25 9h10v46h-10z" fill="#f2ac4c"/><path d="m25 17h10v30h-10z" fill="#ef8746"/><path d="m25 43h10v4h-10z" fill="#ffeb99"/><path d="m35 3h12v52h-12z" fill="#9e2849"/><path d="m35 9h12v40h-12z" fill="#ec455a"/><path d="m39 15h4v28h-4z" fill="#e9e9ea"/><path d="m47 5h12v50h-12z" fill="#57a4ff"/><path d="m47 12h12v36h-12z" fill="#5bcbfa"/><path d="m9.123 8.49h10v46h-10z" fill="#6bc19a" transform="matrix(.966 .259 -.259 .966 8.631 -2.582)"/><g fill="#a4dec2"><path d="m7.982 45.945h4v2h-4z" transform="matrix(.259 -.966 .966 .259 -37.946 44.437)"/><path d="m2.382 29.524h24v2h-24z" transform="matrix(.259 -.966 .966 .259 -18.824 36.515)"/><path d="m17.153 13.586h3v2h-3z" transform="matrix(.259 -.966 .966 .259 -.264 28.828)"/></g></g></svg>