<svg height="512" viewBox="0 0 64 64" width="512" xmlns="http://www.w3.org/2000/svg"><g id="teacher-professor-books-man-desk"><g fill="#bddbff"><path d="m58 27v4h-10a2.006 2.006 0 0 1 -2-2 2.015 2.015 0 0 1 2-2z"/><path d="m58 19v4h-10a2.006 2.006 0 0 1 -2-2 2.015 2.015 0 0 1 2-2z"/><path d="m50 37h5v24h-5z"/><path d="m42 21v10h-20v-10a4 4 0 0 1 4-4h12a4 4 0 0 1 4 4z"/><path d="m46 43v6h-6v-5a2.772 2.772 0 0 0 -.18-1 2.838 2.838 0 0 0 -.7-1.12 2.99 2.99 0 0 0 -4.94 1.12 2.772 2.772 0 0 0 -.18 1v5h-4v-5a2.772 2.772 0 0 0 -.18-1 2.838 2.838 0 0 0 -.7-1.12 2.99 2.99 0 0 0 -4.94 1.12 2.772 2.772 0 0 0 -.18 1v5h-6v-6h6v-6h16v6z"/><path d="m34.6 9h3.4a6 6 0 0 0 -11.69-1.9l3.23 1.08a16.1 16.1 0 0 0 5.06.82z"/><path d="m18 27h-12a2.015 2.015 0 0 0 -2 2 2.006 2.006 0 0 0 2 2h12z"/><path d="m6 23h12v-4h-12a2.015 2.015 0 0 0 -2 2 2.006 2.006 0 0 0 2 2z"/><path d="m9 37h5v24h-5z"/></g><path d="m27 22h-2v5a1 1 0 0 0 1 1h8v-2h-7z" fill="#57a4ff"/><path d="m61 28a1 1 0 0 0 1-1v-4a1 1 0 0 0 -1-1h-2v-3a1 1 0 0 0 -1-1h-10a3 3 0 0 0 0 6h.18a2.868 2.868 0 0 0 0 2h-.18a2.98 2.98 0 0 0 -2.82 4h-2.18v-9a5 5 0 0 0 -5-5h-1.11a6.97 6.97 0 0 0 2.11-5v-2a7 7 0 0 0 -14 0v2a6.97 6.97 0 0 0 2.11 5h-1.11a5 5 0 0 0 -5 5v9h-2v-11a1 1 0 0 0 -1-1h-12a3.009 3.009 0 0 0 -3 3 2.974 2.974 0 0 0 .78 2 2.954 2.954 0 0 0 0 4 2.974 2.974 0 0 0 -.78 2 3 3 0 0 0 .18 1h-.18a1 1 0 0 0 -1 1v6a1 1 0 0 0 1 1h5v23a1 1 0 0 0 1 1h5a1 1 0 0 0 1-1v-23h8v4h-5a1 1 0 0 0 -1 1v6a1 1 0 0 0 1 1h1v12h2v-12h2v11a1 1 0 0 0 1 1h6a1 1 0 0 0 1-1v-11h2v11a1 1 0 0 0 1 1h6a1 1 0 0 0 1-1v-11h3v12h2v-12a1 1 0 0 0 1-1v-6a1 1 0 0 0 -1-1h-5v-4h8v23a1 1 0 0 0 1 1h5a1 1 0 0 0 1-1v-23h5a1 1 0 0 0 1-1v-6a1 1 0 0 0 -1-1h-2v-2zm-38 20h-4v-4h4zm25-26a1 1 0 0 1 0-2h9v2zm0 6h9v2h-9a1 1 0 0 1 0-2zm-16-24a5.017 5.017 0 0 1 4.9 4h-2.3a15.033 15.033 0 0 1 -4.74-.77l-2.17-.72a4.99 4.99 0 0 1 4.31-2.51zm-5 7v-2c0-.2.04-.4.06-.6l2.17.73a16.963 16.963 0 0 0 5.37.87h2.4v1a5 5 0 0 1 -10 0zm-4 10a3.009 3.009 0 0 1 3-3h12a3.009 3.009 0 0 1 3 3v9h-18zm-17-1h11v2h-11a1 1 0 0 1 0-2zm0 4h11v2h-11a1 1 0 0 1 0-2zm0 4h11v2h-11a1 1 0 0 1 0-2zm7 32h-3v-22h3zm16 0h-4v-16a2 2 0 0 1 4 0zm4-12h-2v-4h2zm6 12h-4v-16a2 2 0 0 1 4 0zm0-19.44a3.906 3.906 0 0 0 -2-.56 3.98 3.98 0 0 0 -3.44 2h-3.12a3.98 3.98 0 0 0 -3.44-2 3.906 3.906 0 0 0 -2 .56v-2.56h14zm6 3.44v4h-4v-4zm9 16h-3v-22h3zm6-28v4h-56v-4zm-9-6a1 1 0 0 1 0-2h9v2z" fill="#57a4ff"/></g></svg>